#define image_width 128
#define image_height 64
static unsigned char image_bits[] = {
   0x00, 0x00, 0x00, 0x00, 0x00, 0x00, 0x00, 0x00, 0x00, 0x00, 0x00, 0x00,
   0x00, 0x00, 0x00, 0x00, 0x00, 0x00, 0x00, 0x00, 0x00, 0x00, 0x00, 0x00,
   0x00, 0x00, 0x00, 0x00, 0x00, 0x00, 0x00, 0x00, 0x00, 0x00, 0x00, 0x00,
   0x00, 0x00, 0x00, 0x00, 0x00, 0x00, 0x00, 0x00, 0x00, 0x00, 0x00, 0x00,
   0x00, 0x00, 0x00, 0x00, 0x00, 0x00, 0x00, 0x00, 0x00, 0x00, 0x00, 0x00,
   0x00, 0x00, 0x00, 0x00, 0x00, 0x00, 0x00, 0x00, 0x00, 0x00, 0x00, 0x00,
   0x00, 0x00, 0x00, 0x00, 0x00, 0x00, 0x00, 0x00, 0x00, 0x00, 0x00, 0x00,
   0x00, 0x00, 0x00, 0x00, 0x00, 0x00, 0x00, 0x00, 0x00, 0x00, 0x00, 0x00,
   0xf8, 0xc3, 0xc7, 0x0f, 0x00, 0x1e, 0xfc, 0xf0, 0xe7, 0x30, 0xc0, 0x9f,
   0x7f, 0xf0, 0x80, 0x0f, 0x18, 0x30, 0xc4, 0x18, 0x80, 0x61, 0x8c, 0x31,
   0xe0, 0x30, 0xc0, 0x38, 0x0c, 0x0c, 0x63, 0x08, 0x18, 0x30, 0xc0, 0x30,
   0x80, 0x61, 0x0c, 0x33, 0xe0, 0x31, 0xc0, 0x30, 0x0c, 0x0c, 0x63, 0x00,
   0x18, 0xf0, 0xc0, 0x30, 0xc0, 0xc0, 0x0c, 0x33, 0x60, 0x31, 0xc0, 0x30,
   0x0c, 0x06, 0xe6, 0x01, 0xf8, 0xe3, 0xc7, 0x30, 0xc0, 0xc0, 0x0c, 0xf3,
   0x67, 0x33, 0xc0, 0x38, 0x0c, 0x06, 0xc6, 0x0f, 0x18, 0x80, 0xcf, 0x18,
   0xcf, 0xc0, 0x8c, 0x31, 0x60, 0x36, 0xcf, 0x1f, 0x0c, 0x06, 0x06, 0x1f,
   0x18, 0x00, 0xce, 0x0f, 0xcf, 0xc0, 0xfc, 0x30, 0x60, 0x36, 0xcf, 0x18,
   0x0c, 0x06, 0x06, 0x1c, 0x18, 0x00, 0xcc, 0x00, 0x80, 0x61, 0x0c, 0x30,
   0x60, 0x3c, 0xc0, 0x30, 0x0c, 0x0c, 0x03, 0x18, 0x18, 0x10, 0xcc, 0x00,
   0x80, 0x61, 0x0c, 0x30, 0x60, 0x38, 0xc0, 0x30, 0x0c, 0x0c, 0x23, 0x18,
   0xf8, 0xf3, 0xc3, 0x00, 0x00, 0x1e, 0x0c, 0xf0, 0x67, 0x38, 0xc0, 0x60,
   0x0c, 0xf0, 0xe0, 0x07, 0x00, 0x00, 0x00, 0x00, 0x00, 0x00, 0x00, 0x00,
   0x00, 0x00, 0x00, 0x00, 0x00, 0x00, 0x00, 0x00, 0x00, 0x00, 0x00, 0x00,
   0x00, 0x00, 0x00, 0x00, 0x00, 0x00, 0x00, 0x00, 0x00, 0x00, 0x00, 0x00,
   0x00, 0x00, 0x00, 0x00, 0x00, 0x00, 0x00, 0x00, 0x00, 0x00, 0x00, 0x00,
   0x00, 0x00, 0x00, 0x00, 0x00, 0x00, 0x00, 0x00, 0x00, 0x00, 0x00, 0x00,
   0x00, 0x00, 0x00, 0x00, 0x00, 0x00, 0x00, 0x00, 0x00, 0x00, 0x00, 0x00,
   0x00, 0x00, 0x00, 0x00, 0x00, 0x00, 0x00, 0x00, 0x00, 0x00, 0x00, 0x00,
   0x00, 0x00, 0x00, 0x00, 0x00, 0x00, 0x00, 0x00, 0x00, 0x00, 0x00, 0x00,
   0x00, 0x00, 0x00, 0x00, 0x00, 0x00, 0x00, 0x00, 0x00, 0x00, 0x00, 0x00,
   0x00, 0x00, 0x00, 0x00, 0x00, 0x00, 0x00, 0x00, 0x00, 0x00, 0x00, 0x00,
   0x00, 0x00, 0x00, 0x00, 0x00, 0x00, 0x00, 0x00, 0x00, 0x00, 0x00, 0x00,
   0x00, 0x00, 0x00, 0x00, 0x00, 0x00, 0x00, 0x00, 0x00, 0x00, 0x00, 0x00,
   0x00, 0x00, 0x00, 0x00, 0xe0, 0x03, 0x1f, 0xfc, 0x01, 0x1c, 0xf8, 0x81,
   0x0f, 0x78, 0x00, 0x0c, 0x80, 0x1f, 0xfe, 0x00, 0xf0, 0x87, 0x3f, 0xfc,
   0x07, 0x1f, 0xfc, 0xc3, 0x1f, 0xfc, 0x00, 0x0c, 0xe0, 0x3f, 0xfe, 0x03,
   0x38, 0xc4, 0x21, 0x0c, 0x0e, 0x1b, 0x04, 0xc7, 0x18, 0x8e, 0x00, 0x0c,
   0x70, 0x20, 0x06, 0x07, 0x18, 0xc0, 0x00, 0x0c, 0x0c, 0x18, 0x00, 0x66,
   0x30, 0x07, 0x00, 0x0c, 0x30, 0x00, 0x06, 0x06, 0x18, 0xc0, 0x00, 0x0c,
   0x18, 0x18, 0x00, 0x67, 0x30, 0x03, 0x00, 0x0c, 0x18, 0x00, 0x06, 0x0c,
   0xf0, 0x81, 0x0f, 0x0c, 0x18, 0x18, 0xf0, 0x61, 0x30, 0x7b, 0x00, 0x0c,
   0x18, 0x00, 0x06, 0x0c, 0xe0, 0x07, 0x3f, 0x0c, 0x18, 0x18, 0xf0, 0x63,
   0x30, 0xff, 0x00, 0x0c, 0x18, 0x00, 0x06, 0x0c, 0x00, 0x0e, 0x70, 0x0c,
   0x18, 0x18, 0x00, 0x67, 0x30, 0xc7, 0x01, 0x0c, 0x18, 0x00, 0x06, 0x0c,
   0x00, 0x0c, 0x60, 0x0c, 0x18, 0x18, 0x00, 0x66, 0x30, 0x83, 0x01, 0x0c,
   0x18, 0x00, 0x06, 0x0c, 0x00, 0x0c, 0x60, 0x0c, 0x0c, 0x18, 0x00, 0x66,
   0x30, 0x83, 0x01, 0x0c, 0x30, 0x00, 0x06, 0x06, 0x08, 0x4e, 0x70, 0x0c,
   0x0e, 0x18, 0x04, 0xc7, 0x18, 0xc6, 0x01, 0x0c, 0x70, 0x20, 0x06, 0x07,
   0xf8, 0xc7, 0x3f, 0xfc, 0x07, 0xff, 0xfc, 0xc3, 0x1f, 0xfe, 0x00, 0xfc,
   0xe3, 0x3f, 0xfe, 0x03, 0xf0, 0x83, 0x1f, 0xfc, 0x01, 0xff, 0xf8, 0x81,
   0x0f, 0x78, 0x00, 0xfc, 0x83, 0x1f, 0xfe, 0x00, 0x00, 0x00, 0x00, 0x00,
   0x00, 0x00, 0x00, 0x00, 0x00, 0x00, 0x00, 0x00, 0x00, 0x00, 0x00, 0x00,
   0x00, 0x00, 0x00, 0x00, 0x00, 0x00, 0x00, 0x00, 0x00, 0x00, 0x00, 0x00,
   0x00, 0x00, 0x00, 0x00, 0x00, 0x00, 0x00, 0x00, 0x00, 0x00, 0x00, 0x00,
   0x00, 0x00, 0x00, 0x00, 0x00, 0x00, 0x00, 0x00, 0x00, 0x00, 0x00, 0x00,
   0x00, 0x00, 0x00, 0x00, 0x00, 0x00, 0x00, 0x00, 0x00, 0x00, 0x00, 0x00,
   0x00, 0x00, 0x00, 0x00, 0x00, 0x00, 0x00, 0x00, 0x00, 0x00, 0x00, 0x00,
   0x00, 0x00, 0x00, 0x00, 0x00, 0x00, 0x00, 0x00, 0x00, 0x00, 0x00, 0x00,
   0x00, 0x00, 0x00, 0x00, 0x00, 0x00, 0x00, 0x00, 0x00, 0x00, 0x00, 0x00,
   0x00, 0x00, 0x00, 0x00, 0x00, 0x00, 0x00, 0x00, 0x00, 0x00, 0x00, 0x00,
   0x00, 0x00, 0x00, 0x80, 0x01, 0x00, 0x00, 0x00, 0x00, 0x00, 0x00, 0x00,
   0x00, 0x00, 0x00, 0x00, 0x00, 0x00, 0x00, 0x80, 0x01, 0x00, 0x00, 0x18,
   0x18, 0x7e, 0xc0, 0xe1, 0x00, 0x00, 0x00, 0x00, 0x00, 0x00, 0x00, 0x80,
   0x01, 0x00, 0x00, 0x18, 0x18, 0xfe, 0x80, 0x61, 0x00, 0x00, 0x00, 0x00,
   0x00, 0x00, 0x00, 0x80, 0x01, 0x00, 0x00, 0x18, 0x18, 0xc6, 0x81, 0x33,
   0x00, 0x00, 0x00, 0x00, 0x00, 0x00, 0x00, 0x80, 0x3d, 0x06, 0x06, 0x18,
   0x18, 0x86, 0x01, 0x3b, 0x00, 0x00, 0x00, 0x00, 0x00, 0x00, 0x00, 0x80,
   0x7f, 0x06, 0x06, 0x18, 0x18, 0x86, 0x01, 0x1e, 0x00, 0x00, 0x00, 0x00,
   0x00, 0x00, 0x00, 0x80, 0xe3, 0x0c, 0x03, 0x18, 0x18, 0xc6, 0x01, 0x0e,
   0x00, 0x00, 0x00, 0x00, 0x00, 0x00, 0x00, 0x80, 0xc1, 0x0c, 0x03, 0x18,
   0x18, 0xfe, 0x00, 0x0e, 0x00, 0x00, 0x00, 0x00, 0x00, 0x00, 0x00, 0x80,
   0xc1, 0x98, 0x01, 0x18, 0x18, 0x7e, 0x00, 0x1e, 0x00, 0x00, 0x00, 0x00,
   0x00, 0x00, 0x00, 0x80, 0xc1, 0x98, 0x01, 0x18, 0x18, 0xc6, 0x00, 0x1b,
   0x00, 0x00, 0x00, 0x00, 0x00, 0x00, 0x00, 0x80, 0xc1, 0xf0, 0x00, 0x18,
   0x18, 0x86, 0x81, 0x33, 0x00, 0x00, 0x00, 0x00, 0x00, 0x00, 0x00, 0x80,
   0xe3, 0xf0, 0x00, 0x30, 0x0c, 0x86, 0x81, 0x71, 0x00, 0x00, 0x00, 0x00,
   0x00, 0x00, 0x00, 0x80, 0x7f, 0x60, 0x00, 0xf0, 0x0f, 0x06, 0xc3, 0x60,
   0x00, 0x00, 0x00, 0x00, 0x00, 0x00, 0x00, 0x80, 0x3d, 0x60, 0x00, 0xc0,
   0x03, 0x06, 0xe7, 0xe0, 0x00, 0x00, 0x00, 0x00, 0x00, 0x00, 0x00, 0x00,
   0x00, 0x60, 0x00, 0x00, 0x00, 0x00, 0x00, 0x00, 0x00, 0x00, 0x00, 0x00,
   0x00, 0x00, 0x00, 0x00, 0x00, 0x30, 0x00, 0x00, 0x00, 0x00, 0x00, 0x00,
   0x00, 0x00, 0x00, 0x00, 0x00, 0x00, 0x00, 0x00, 0x00, 0x3c, 0x00, 0x00,
   0x00, 0x00, 0x00, 0x00, 0x00, 0x00, 0x00, 0x00, 0x00, 0x00, 0x00, 0x00,
   0x00, 0x1c, 0x00, 0x00, 0x00, 0x00, 0x00, 0x00, 0x00, 0x00, 0x00, 0x00,
   0x00, 0x00, 0x00, 0x00, 0x00, 0x00, 0x00, 0x00, 0x00, 0x00, 0x00, 0x00,
   0x00, 0x00, 0x00, 0x00 };
